<?xml version="1.0" encoding="UTF-8" standalone="no"?>
<!-- Created with Inkscape (http://www.inkscape.org/) -->

<svg
   xmlns:dc="http://purl.org/dc/elements/1.1/"
   xmlns:cc="http://creativecommons.org/ns#"
   xmlns:rdf="http://www.w3.org/1999/02/22-rdf-syntax-ns#"
   xmlns:svg="http://www.w3.org/2000/svg"
   xmlns="http://www.w3.org/2000/svg"
   xmlns:sodipodi="http://sodipodi.sourceforge.net/DTD/sodipodi-0.dtd"
   xmlns:inkscape="http://www.inkscape.org/namespaces/inkscape"
   id="svg2"
   version="1.1"
   inkscape:version="0.92.5 (2060ec1f9f, 2020-04-08)"
   width="247.22789"
   height="214.92133"
   viewBox="0 0 247.22789 214.92133"
   sodipodi:docname="logo.svg">
  <metadata
     id="metadata8">
    <rdf:RDF>
      <cc:Work
         rdf:about="">
        <dc:format>image/svg+xml</dc:format>
        <dc:type
           rdf:resource="http://purl.org/dc/dcmitype/StillImage" />
        <dc:title></dc:title>
      </cc:Work>
    </rdf:RDF>
  </metadata>
  <defs
     id="defs6" />
  <sodipodi:namedview
     pagecolor="#ffffff"
     bordercolor="#666666"
     borderopacity="1"
     objecttolerance="10"
     gridtolerance="10"
     guidetolerance="10"
     inkscape:pageopacity="1"
     inkscape:pageshadow="2"
     inkscape:window-width="1848"
     inkscape:window-height="1016"
     id="namedview4"
     showgrid="false"
     fit-margin-top="0"
     fit-margin-left="0"
     fit-margin-right="0"
     fit-margin-bottom="0"
     inkscape:zoom="1.2395166"
     inkscape:cx="78.480502"
     inkscape:cy="124.27757"
     inkscape:window-x="72"
     inkscape:window-y="27"
     inkscape:window-maximized="1"
     inkscape:current-layer="svg2" />
  <path
     id="path4172"
     style="fill:#000000"
     d="m 171.47127,62.527842 c 3.90033,-1.62967 4.48053,-4.36901 1.34069,-6.32988 -2.98999,-1.86728 -14.13326,-5.19138 -15.19765,-4.53355 -1.4353,0.88707 -4.87111,9.55812 -4.33789,10.94767 0.99556,2.5944 11.90485,2.54389 18.19485,-0.0842 z M 94.673412,136.80428 c 1.25999,-1.25999 1.59828,-8.71194 0.56971,-12.55 -0.74182,-2.76812 -4.4691,-2.99428 -10.37865,-0.62975 -7.79328,3.11826 -7.21056,6.39716 2.00894,11.30407 6.4935,3.45605 6.27272,3.40296 7.8,1.87568 z m 88.950008,7.14545 c 2.2275,-0.78209 3.25,-1.78106 3.25,-3.1752 0,-2.52947 -5.22629,-7.47565 -11.35935,-10.75055 -4.42294,-2.36173 -4.77635,-2.40214 -7.39282,-0.84535 -3.17148,1.88702 -7.97217,9.17651 -8.43297,12.80484 -0.25871,2.03706 0.22014,2.60712 2.68514,3.19656 4.00708,0.95819 17.19087,0.19489 21.25,-1.2303 z m -41.78864,9.57453 c 3.32863,-1.7213 7.03864,-6.10992 7.03864,-8.3261 0,-0.84502 0.58544,-2.24683 1.30099,-3.11514 0.71554,-0.86831 1.86735,-3.82293 2.55957,-6.56583 0.69222,-2.74289 1.90678,-5.70333 2.69901,-6.57874 2.6285,-2.90445 1.67497,-4.62725 -3.49747,-6.31907 -2.71584,-0.8883 -5.90337,-1.6151 -7.08338,-1.6151 -3.37199,0 -16.87763,-3.7153 -23.47872,-6.45883 -7.55325,-3.13926 -8.99211,-3.13997 -12.12611,-0.006 -4.08691,4.08691 -7.82617,19.63149 -5.5746,23.17431 0.60545,0.95267 10.93779,6.24877 13.20071,6.76636 0.275,0.0629 2.08775,0.43324 4.02834,0.82298 2.33426,0.4688 4.96028,2.23027 7.7595,5.20489 4.6646,4.95688 7.96116,5.71167 13.17352,3.01625 z m -27.71136,7.74278 c -5.60277,-0.39196 -6.28409,-1.06466 -3.5,-3.45577 2.67952,-2.30131 5.19729,-2.90557 7.33646,-1.76072 2.1227,1.13604 8.91354,0.2637 8.91354,-1.14502 0,-2.39517 -17.50323,-10.8438 -22.55001,-10.88465 -2.98528,-0.0242 -4.444328,1.9031 -4.491918,5.9334 -0.023,1.9525 -0.86393,5.09338 -1.86862,6.97974 -1.76334,3.31076 -1.86596,3.3564 -2.95808,1.31574 -1.62222,-3.03114 -1.41269,-7.92355 0.36862,-8.60711 2.05298,-0.7878 1.89235,-3.56267 -0.25,-4.31877 -0.9625,-0.33969 -2.65,-1.40372 -3.75,-2.36451 -1.67945,-1.46691 -11.10278,-6.43834 -21.5,-11.34268 -4.427248,-2.08832 -3.679073,-4.81228 2.48847,-9.06003 3.06686,-2.11222 6.70512,-5.18217 8.08504,-6.82211 2.34442,-2.78619 2.40108,-3.10087 0.86402,-4.7993 -0.9047,-0.99969 -2.83575,-2.08882 -4.29122,-2.4203 -1.45547,-0.33148 -4.67131,-2.34635 -7.14631,-4.47748 -4.5,-3.87478 -4.5,-3.87478 -4.334661,-10.203978 0.09094,-3.48107 0.315936,-7.22921 0.5,-8.32921 0.804976,-4.81069 -12.602762,0.23237 -21.648163,8.14254 -2.740554,2.3966 -5.821087,4.35746 -6.84563,4.35746 -2.041575,0 -5.743014,2.382568 -12.717046,8.185798 -8.795536,7.31894 -14.966161,6.0249 -21.66482,-4.54333 -2.31567502,-3.653358 -3.66142232,-6.642468 -2.99054632,-6.642468 0.6708753,0 1.78183232,-0.9 2.46879332,-2 1.462893,-2.34246 3.509431,-2.57566 5.159156,-0.58786 0.644585,0.77668 3.43012,1.95386 6.190078,2.61597 4.512994,1.08265 5.211367,1.016 6.93809,-0.66214 4.506619,-4.37983 5.696159,-5.24434 10.444749,-7.5908 6.854392,-3.38703 13.392321,-5.34376 24,-7.18293 8.894113,-1.54207 18.9085,-5.68381 24.46291,-10.11736 6.66564,-5.32054 10.97181,-5.78122 26.381798,-2.82241 13.81659,2.65287 19.04538,2.91604 20.79184,1.04644 0.82732,-0.88565 3.07499,-1.16657 7.03943,-0.87981 6.22488,0.45027 6.64145,0.069 4.66483,-4.26917 -0.93093,-2.04317 -0.79893,-3.77547 0.67035,-8.79705 1.00625,-3.43909 2.70921,-7.24183 3.78434,-8.45054 1.07514,-1.20872 2.16899,-4.13372 2.43078,-6.5 0.64532,-5.83301 10.15304,-18.65927 13.91295,-18.76908 0.62656,-0.0183 2.20156,-0.89802 3.5,-1.95494 2.36078,-1.92168 2.36078,-1.92168 -0.38922,-4.80472 -3.68706,-3.86543 -3.82102,-9.34183 -0.28518,-11.65859 3.6531,-2.39360995 8.2128,-2.09355995 9.6497,0.63499 0.65169,1.2375 1.59273,2.51713 2.09119,2.84363 0.49847,0.3265 1.11035,2.23866 1.35972,4.24924 0.37599,3.03144 -0.0545,4.18713 -2.5215,6.76857 -2.62415,2.74592 -2.90656,3.61162 -2.39523,7.3422 0.58807,4.29045 -2.97497,17.54636 -4.71627,17.54636 -0.43871,0 -1.09792,0.94604 -1.4649,2.10231 -0.50682,1.59685 0.17884,2.90038 2.85174,5.42154 6.03004,5.6877 9.85029,6.70741 16.47582,4.39773 2.60079,-0.90664 3.14222,-1.66322 3.39922,-4.75 0.2468,-2.96423 0.75095,-3.73469 2.61684,-3.99915 3.39215,-0.48078 3.93787,-3.09755 1.09494,-5.25039 -2.38585,-1.8067 -2.38927,-1.83501 -0.40609,-3.36486 1.1,-0.84856 3.125,-1.82504 4.5,-2.16995 1.375,-0.34491 2.95,-1.16393 3.5,-1.82005 0.55,-0.65611 2.40049,-2.01253 4.1122,-3.01426 3.10921,-1.81959 3.11831,-1.81818 9.5,1.46964 3.51329,1.81004 7.7378,3.97947 9.3878,4.82097 1.65,0.8415 5.54968,3.64503 8.66595,6.23007 3.11627,2.58505 8.39729,6.38597 11.7356,8.44649 5.46491,3.37314 5.43076,3.56994 5.45282,6.36316 0.0243,3.08268 -4.12521,7.11675 -5.90624,7.11675 -0.66178,0 -1.76344,-0.675 -2.44813,-1.5 -0.82102,-0.98927 -3.05579,-1.5 -6.56343,-1.5 -2.92519,0 -5.59665,-0.45 -5.93657,-1 -0.33992,-0.55 -3.728,-1 -7.52908,-1 -6.56111,0 -7.02649,0.15614 -9.19098,3.08378 -1.25397,1.69608 -2.31765,3.83358 -2.36373,4.75 -0.0461,0.91642 -0.60859,2.93301 -1.25,4.48132 -0.64142,1.5483 -1.16621,3.17579 -1.16621,3.61664 0,1.71479 -4.63159,11.88037 -8.22494,18.05239 -2.24191,3.85076 -3.77506,7.79138 -3.77506,9.702948 0,3.42067 -1.81324,8.31292 -3.08106,8.31292 -0.41802,0 -1.04493,1.29713 -1.39313,2.8825 -0.34821,1.58538 -1.95897,4.06385 -3.57946,5.50772 -1.62049,1.44386 -2.94635,3.22659 -2.94635,3.96161 0,0.73501 2.925,4.9757 6.5,9.42375 3.575,4.44804 6.5,8.72345 6.5,9.5009 0,2.8022 -3.68039,4.5569 -13.88924,6.62196 -12.53776,2.53617 -14.02901,2.56801 -20.05368,0.42824 -2.59124,-0.92033 -5.39558,-1.41076 -6.23185,-1.08985 -0.83628,0.3209 -2.47502,2.61412 -3.64166,5.09603 -1.16663,2.4819 -2.9227,4.72422 -3.90236,4.98293 -0.97967,0.2587 -3.80621,0.94072 -6.28121,1.51559 -14.82015,3.44232 -13.72376,3.34266 -26.75,2.43138 z"
     inkscape:connector-curvature="0" />
  <text
     xml:space="preserve"
     style="font-style:normal;font-weight:normal;line-height:0%;font-family:sans-serif;letter-spacing:0px;word-spacing:0px;fill:#000000;fill-opacity:1;stroke:none;stroke-width:1px;stroke-linecap:butt;stroke-linejoin:miter;stroke-opacity:1"
     x="18.291683"
     y="206.60101"
     id="text4133"><tspan
       sodipodi:role="line"
       id="tspan4135"
       x="18.291683"
       y="206.60101"
       style="font-style:normal;font-variant:normal;font-weight:bold;font-stretch:normal;font-size:40px;line-height:1.25;font-family:sans-serif;-inkscape-font-specification:'sans-serif Bold'">SGX-Step</tspan></text>
</svg>
